<svg width="1008" height="720" xmlns="http://www.w3.org/2000/svg" xmlns:xlink="http://www.w3.org/1999/xlink" overflow="hidden"><g><rect x="0" y="0" width="1008" height="720" fill="#FFFFFF"/><path d="M502.509 429.481 505.15 392.444 508.673 362.462 505.15 353.643 490.181 325.425 479.615 321.015 468.168 306.024C465.752 286.664 466.407 296.654 466.407 276.042L469.049 246.059C469.929 243.708 470.672 241.299 471.69 239.004 478.114 224.53 474.601 234.668 476.973 227.541L491.942 206.376C498.939 201.281 501.076 200.495 506.031 194.912 507.006 193.814 507.792 192.561 508.673 191.385L516.597 171.985 521 158.757 515.717 134.066 507.792 100.556 469.929 72.3369 463.765 67.9277 442.633 58.2276 420.619 58.2276 370.429 51.1729 362.504 51.1729 329.925 48.5274 257.721 45 246.274 45 211.934 52.0547C198.444 53.9847 203.757 53.8184 196.084 53.8184L174.951 59.9913C162.638 64.734 167.383 63.1056 160.863 65.2822L141.491 89.0919C140.317 92.0313 139.104 94.9554 137.969 97.9102 137.636 98.7778 137.29 99.6484 137.089 100.556 136.701 102.301 136.501 104.083 136.208 105.847L128.283 134.947C127.403 138.769 126.747 142.649 125.642 146.411 123.224 154.643 123.881 144.835 123.881 154.348L123 172.866C123.925 191.384 123.881 184.617 123.881 193.149L125.642 219.604C128.257 230.079 129.104 234.09 132.686 245.177 134.315 250.219 136.208 255.171 137.969 260.168L144.133 329.834 184.637 355.407C187.279 356.877 189.957 358.282 192.562 359.816 194.949 361.222 197.101 363.045 199.606 364.225 202.126 365.413 204.87 366.051 207.531 366.871 208.688 367.227 211.053 367.753 211.053 367.753L226.022 384.508C228.37 386.271 230.903 387.812 233.066 389.799 234.452 391.071 235.085 393.079 236.589 394.208 237.557 394.935 238.963 394.706 240.111 395.09 240.733 395.298 241.285 395.678 241.872 395.972L272.69 420.663C273.864 423.015 273.924 426.429 276.212 427.718 279.293 429.453 286.779 428.6 286.779 428.6L336.969 430.363C353.678 433.71 345.748 432.27 360.743 434.773L394.204 446.236 407.411 448 467.288 448 497.226 439.182" fill="#BFBFBF" fill-rule="evenodd"/><path d="M225 96 338.655 246.069" stroke="#0070C0" stroke-width="8" stroke-miterlimit="8" fill="none" fill-rule="evenodd"/><path d="M0 0 114.01 150.069" stroke="#0070C0" stroke-width="8" stroke-miterlimit="8" fill="none" fill-rule="evenodd" transform="matrix(1 0 0 -1 339 246.069)"/><path d="M339 246 504.092 441.432" stroke="#0070C0" stroke-width="8" stroke-miterlimit="8" stroke-dasharray="8 8" fill="none" fill-rule="evenodd"/><path d="M0 0 149.725 126.826" stroke="#0070C0" stroke-width="8" stroke-miterlimit="8" fill="none" fill-rule="evenodd" transform="matrix(1 0 0 -1 504 441.826)"/><path d="M573 208 651.385 311.927" stroke="#0070C0" stroke-width="8" stroke-miterlimit="8" fill="none" fill-rule="evenodd"/><path d="M0 0 94.2385 97.7615" stroke="#0070C0" stroke-width="8" stroke-miterlimit="8" fill="none" fill-rule="evenodd" transform="matrix(1 0 0 -1 651 314.761)"/><path d="M504 441 504 596.89" stroke="#0070C0" stroke-width="8" stroke-miterlimit="8" fill="none" fill-rule="evenodd"/><path d="M492.5 436C492.5 430.753 496.53 426.5 501.5 426.5 506.471 426.5 510.5 430.753 510.5 436 510.5 441.247 506.471 445.5 501.5 445.5 496.53 445.5 492.5 441.247 492.5 436Z" stroke="#000000" stroke-width="1.33333" stroke-miterlimit="8" fill-rule="evenodd"/></g></svg>