<svg width="896" height="624" xmlns="http://www.w3.org/2000/svg" xmlns:xlink="http://www.w3.org/1999/xlink" overflow="hidden"><defs><clipPath id="clip0"><rect x="0" y="0" width="896" height="624"/></clipPath></defs><g clip-path="url(#clip0)"><rect x="0" y="0" width="896" height="624" fill="#FFFFFF"/><path d="M398 315 585.346 315" stroke="#4472C4" stroke-width="8" stroke-miterlimit="8" fill="none" fill-rule="evenodd"/><path d="M0 0 73.5825 96" stroke="#C00000" stroke-width="8" stroke-miterlimit="8" fill="none" fill-rule="evenodd" transform="matrix(0.29394 0.955824 0.955824 -0.29394 97.7573 79.4225)"/><path d="M0 0 121.407 47.934" stroke="#C00000" stroke-width="8" stroke-miterlimit="8" fill="none" fill-rule="evenodd" transform="matrix(0.29394 0.955824 0.955824 -0.29394 211.145 121.536)"/><path d="M0 0 54.4229 133.22" stroke="#4472C4" stroke-width="8" stroke-miterlimit="8" fill="none" fill-rule="evenodd" transform="matrix(1 0 0 -1 293 219.22)"/><path d="M293 220 398.494 315.934" stroke="#C00000" stroke-width="8" stroke-miterlimit="8" fill="none" fill-rule="evenodd"/><path d="M200.5 124C200.5 117.649 205.649 112.5 212 112.5 218.351 112.5 223.5 117.649 223.5 124 223.5 130.351 218.351 135.5 212 135.5 205.649 135.5 200.5 130.351 200.5 124Z" stroke="#2F528F" stroke-width="1.33333" stroke-miterlimit="8" fill-rule="evenodd"/><path d="M585 315 713.972 420.857" stroke="#C00000" stroke-width="8" stroke-miterlimit="8" fill="none" fill-rule="evenodd"/><path d="M0 0 105.494 134.67" stroke="#4472C4" stroke-width="8" stroke-miterlimit="8" fill="none" fill-rule="evenodd" transform="matrix(1 0 0 -1 398 315.67)"/><path d="M714 421 757.604 569.747" stroke="#C00000" stroke-width="8" stroke-miterlimit="8" fill="none" fill-rule="evenodd"/><path d="M0 0 54.4229 133.22" stroke="#4472C4" stroke-width="8" stroke-miterlimit="8" fill="none" fill-rule="evenodd" transform="matrix(1 0 0 -1 714 426.22)"/><text font-family="Calibri,Calibri_MSFontService,sans-serif" font-weight="700" font-size="24" transform="translate(120.88 124)">1</text><text font-family="Calibri,Calibri_MSFontService,sans-serif" font-weight="700" font-size="24" transform="translate(220.314 187)">2</text><text font-family="Calibri,Calibri_MSFontService,sans-serif" font-weight="700" font-size="24" transform="translate(340.998 159)">3</text><text font-family="Calibri,Calibri_MSFontService,sans-serif" font-weight="700" font-size="24" transform="translate(313.623 291)">4</text><text font-family="Calibri,Calibri_MSFontService,sans-serif" font-weight="700" font-size="24" transform="translate(469.742 350)">6</text><text font-family="Calibri,Calibri_MSFontService,sans-serif" font-weight="700" font-size="24" transform="translate(614.551 384)">7</text><text font-family="Calibri,Calibri_MSFontService,sans-serif" font-weight="700" font-size="24" transform="translate(495.292 237)">5</text><text font-family="Calibri,Calibri_MSFontService,sans-serif" font-weight="700" font-size="24" transform="translate(762.647 363)">8</text><text font-family="Calibri,Calibri_MSFontService,sans-serif" font-weight="700" font-size="24" transform="translate(705.941 507)">9</text><path d="M281.5 220C281.5 213.649 286.649 208.5 293 208.5 299.351 208.5 304.5 213.649 304.5 220 304.5 226.351 299.351 231.5 293 231.5 286.649 231.5 281.5 226.351 281.5 220Z" stroke="#2F528F" stroke-width="1.33333" stroke-miterlimit="8" fill-rule="evenodd"/><path d="M386.5 314C386.5 307.649 391.873 302.5 398.5 302.5 405.127 302.5 410.5 307.649 410.5 314 410.5 320.351 405.127 325.5 398.5 325.5 391.873 325.5 386.5 320.351 386.5 314Z" stroke="#2F528F" stroke-width="1.33333" stroke-miterlimit="8" fill-rule="evenodd"/><path d="M573.5 316C573.5 309.649 578.873 304.5 585.5 304.5 592.128 304.5 597.5 309.649 597.5 316 597.5 322.351 592.128 327.5 585.5 327.5 578.873 327.5 573.5 322.351 573.5 316Z" stroke="#2F528F" stroke-width="1.33333" stroke-miterlimit="8" fill-rule="evenodd"/><path d="M705.5 423C705.5 416.649 710.873 411.5 717.5 411.5 724.128 411.5 729.5 416.649 729.5 423 729.5 429.351 724.128 434.5 717.5 434.5 710.873 434.5 705.5 429.351 705.5 423Z" stroke="#2F528F" stroke-width="1.33333" stroke-miterlimit="8" fill-rule="evenodd"/></g></svg>