<svg width="1008" height="720" xmlns="http://www.w3.org/2000/svg" xmlns:xlink="http://www.w3.org/1999/xlink" overflow="hidden"><g><rect x="0" y="0" width="1008" height="720" fill="#FFFFFF"/><path d="M225 111 338.655 261.069" stroke="#0070C0" stroke-width="8" stroke-miterlimit="8" fill="none" fill-rule="evenodd"/><path d="M0 0 114.01 150.069" stroke="#0070C0" stroke-width="8" stroke-miterlimit="8" fill="none" fill-rule="evenodd" transform="matrix(1 0 0 -1 339 261.069)"/><path d="M339 261 504.092 456.432" stroke="#0070C0" stroke-width="8" stroke-miterlimit="8" fill="none" fill-rule="evenodd"/><path d="M0 0 149.725 126.826" stroke="#0070C0" stroke-width="8" stroke-miterlimit="8" fill="none" fill-rule="evenodd" transform="matrix(1 0 0 -1 504 456.826)"/><path d="M573 223 651.385 326.927" stroke="#0070C0" stroke-width="8" stroke-miterlimit="8" fill="none" fill-rule="evenodd"/><path d="M0 0 94.2385 97.7615" stroke="#0070C0" stroke-width="8" stroke-miterlimit="8" fill="none" fill-rule="evenodd" transform="matrix(1 0 0 -1 651 329.761)"/><path d="M504 457 504 612.89" stroke="#0070C0" stroke-width="8" stroke-miterlimit="8" fill="none" fill-rule="evenodd"/><path d="M330.5 261.5C330.5 256.529 334.53 252.5 339.5 252.5 344.471 252.5 348.5 256.529 348.5 261.5 348.5 266.471 344.471 270.5 339.5 270.5 334.53 270.5 330.5 266.471 330.5 261.5Z" stroke="#000000" stroke-width="1.33333" stroke-miterlimit="8" fill-rule="evenodd"/><path d="M644.5 330C644.5 324.753 648.753 320.5 654 320.5 659.247 320.5 663.5 324.753 663.5 330 663.5 335.247 659.247 339.5 654 339.5 648.753 339.5 644.5 335.247 644.5 330Z" stroke="#000000" stroke-width="1.33333" stroke-miterlimit="8" fill-rule="evenodd"/><path d="M495.5 457C495.5 451.753 499.53 447.5 504.5 447.5 509.471 447.5 513.5 451.753 513.5 457 513.5 462.247 509.471 466.5 504.5 466.5 499.53 466.5 495.5 462.247 495.5 457Z" stroke="#000000" stroke-width="1.33333" stroke-miterlimit="8" fill-rule="evenodd"/><path d="M495.5 613C495.5 607.753 499.53 603.5 504.5 603.5 509.471 603.5 513.5 607.753 513.5 613 513.5 618.247 509.471 622.5 504.5 622.5 499.53 622.5 495.5 618.247 495.5 613Z" stroke="#000000" stroke-width="1.33333" stroke-miterlimit="8" fill-rule="evenodd"/></g></svg>