<svg width="1008" height="720" xmlns="http://www.w3.org/2000/svg" xmlns:xlink="http://www.w3.org/1999/xlink" overflow="hidden"><g><rect x="0" y="0" width="1008" height="720" fill="#FFFFFF"/><path d="M225 109 338.655 259.069" stroke="#0070C0" stroke-width="8" stroke-miterlimit="8" fill="none" fill-rule="evenodd"/><path d="M0 0 114.01 150.069" stroke="#0070C0" stroke-width="8" stroke-miterlimit="8" fill="none" fill-rule="evenodd" transform="matrix(1 0 0 -1 339 259.069)"/><path d="M339 260 504.092 455.432" stroke="#0070C0" stroke-width="8" stroke-miterlimit="8" fill="none" fill-rule="evenodd"/><path d="M0 0 149.725 126.826" stroke="#0070C0" stroke-width="8" stroke-miterlimit="8" fill="none" fill-rule="evenodd" transform="matrix(1 0 0 -1 504 454.826)"/><path d="M573 222 651.385 325.927" stroke="#0070C0" stroke-width="8" stroke-miterlimit="8" fill="none" fill-rule="evenodd"/><path d="M0 0 94.2385 97.7615" stroke="#0070C0" stroke-width="8" stroke-miterlimit="8" fill="none" fill-rule="evenodd" transform="matrix(1 0 0 -1 651 327.761)"/><path d="M504 455 504 610.89" stroke="#0070C0" stroke-width="8" stroke-miterlimit="8" stroke-dasharray="8 8" fill="none" fill-rule="evenodd"/><path d="M1.83595-2.37261 63.9545 45.6953 60.2826 50.4405-1.83595 2.37261ZM65.2538 39.1141 73.9816 57.2477 54.2381 53.3498Z" transform="matrix(1 0 0 -1 313 408.248)"/><path d="M661.34 482.686 599.132 416.957 603.49 412.832 665.698 478.562ZM596.836 423.26 591 404 609.91 410.887Z"/></g></svg>