<svg width="1008" height="720" xmlns="http://www.w3.org/2000/svg" xmlns:xlink="http://www.w3.org/1999/xlink" overflow="hidden"><g><rect x="0" y="0" width="1008" height="720" fill="#FFFFFF"/><path d="M225 117 338.655 267.069" stroke="#0070C0" stroke-width="8" stroke-miterlimit="8" fill="none" fill-rule="evenodd"/><path d="M0 0 114.01 150.069" stroke="#0070C0" stroke-width="8" stroke-miterlimit="8" fill="none" fill-rule="evenodd" transform="matrix(1 0 0 -1 339 267.069)"/><path d="M339 267 504.092 462.432" stroke="#0070C0" stroke-width="8" stroke-miterlimit="8" fill="none" fill-rule="evenodd"/><path d="M0 0 149.725 126.826" stroke="#0070C0" stroke-width="8" stroke-miterlimit="8" fill="none" fill-rule="evenodd" transform="matrix(1 0 0 -1 504 462.826)"/><path d="M573 229 651.385 332.927" stroke="#0070C0" stroke-width="8" stroke-miterlimit="8" fill="none" fill-rule="evenodd"/><path d="M0 0 94.2385 97.7615" stroke="#0070C0" stroke-width="8" stroke-miterlimit="8" fill="none" fill-rule="evenodd" transform="matrix(1 0 0 -1 651 335.761)"/><path d="M504 463 504 618.89" stroke="#0070C0" stroke-width="8" stroke-miterlimit="8" fill="none" fill-rule="evenodd"/><path d="M495.5 619C495.5 613.753 499.53 609.5 504.5 609.5 509.471 609.5 513.5 613.753 513.5 619 513.5 624.247 509.471 628.5 504.5 628.5 499.53 628.5 495.5 624.247 495.5 619Z" stroke="#000000" stroke-width="1.33333" stroke-miterlimit="8" fill-rule="evenodd"/></g></svg>