<svg width="1008" height="720" xmlns="http://www.w3.org/2000/svg" xmlns:xlink="http://www.w3.org/1999/xlink" overflow="hidden"><g><rect x="0" y="0" width="1008" height="720" fill="#FFFFFF"/><path d="M501.742 630 383.92 626.629 350.257 592.082 349.415 581.127 333.425 539.838C314.385 529.115 324.928 533.611 301.445 527.199L239.168 508.661C236.363 508.099 233.353 508.169 230.752 506.976 224.64 504.171 216.928 497.802 211.396 493.494L162.584 469.057C158.604 460.091 160.244 464.042 157.535 457.26L139.02 412.601 134.812 405.86 119.663 372.154 117.98 356.144 103.673 306.429 101.148 286.206 86 224.694 86 203.628 86 167.395 86 151.385 90.208 114.309C103.649 105.337 96.6335 109.265 111.248 102.512L133.129 78.0758 144.069 73.8627 182.782 55.3247C187.812 54.409 193.581 53.1818 198.772 52.7968 204.095 52.402 209.432 52.2351 214.762 51.9542L319.96 46.0558 339.316 45.2131 404.118 41 463.029 41 568.227 58.6953C571.759 59.453 589.73 61.2534 596.841 66.2789 600.098 68.581 606.098 73.8627 606.098 73.8627L630.504 90.7153C683.496 93.5078 651.81 92.543 725.603 91.5579L816.494 86.5021C821.543 88.7491 826.722 90.7252 831.642 93.2432 839.357 97.1915 845.892 104.065 854.365 105.883L866.147 108.411 904.86 147.172C910.817 168.049 906.358 150.742 911.592 179.192 915.479 200.32 913.119 182.991 914.959 197.73L933.473 314.013C934.034 319.069 934.551 324.13 935.157 329.18 936.078 336.865 935.998 332.745 935.998 336.764L931.79 426.926C930.949 429.454 930.66 432.24 929.266 434.509 922.379 445.714 926.637 431.556 924.216 441.25L896.444 503.605C888.292 512.788 892.816 509.857 883.82 513.717L812.286 538.996C807.236 540.4 802.213 541.902 797.137 543.209 776.505 548.521 789.143 544.472 777.781 548.265L719.712 568.488C716.345 569.892 712.836 570.993 709.613 572.701 708.025 573.542 707.081 575.426 705.405 576.072 703.294 576.884 700.915 576.621 698.672 576.914L686.048 578.599 571.593 599.665 508.474 626.629 508.474 629.157 508.474 629.157 507.633 627.472" fill="#BFBFBF" fill-rule="evenodd"/><path d="M225 129 338.655 279.069" stroke="#0070C0" stroke-width="8" stroke-miterlimit="8" fill="none" fill-rule="evenodd"/><path d="M0 0 114.01 150.069" stroke="#0070C0" stroke-width="8" stroke-miterlimit="8" fill="none" fill-rule="evenodd" transform="matrix(1 0 0 -1 339 279.069)"/><path d="M339 279 504.092 474.432" stroke="#0070C0" stroke-width="8" stroke-miterlimit="8" fill="none" fill-rule="evenodd"/><path d="M0 0 149.725 126.826" stroke="#0070C0" stroke-width="8" stroke-miterlimit="8" fill="none" fill-rule="evenodd" transform="matrix(1 0 0 -1 504 473.826)"/><path d="M573 241 651.385 344.927" stroke="#0070C0" stroke-width="8" stroke-miterlimit="8" fill="none" fill-rule="evenodd"/><path d="M0 0 94.2385 97.7615" stroke="#0070C0" stroke-width="8" stroke-miterlimit="8" fill="none" fill-rule="evenodd" transform="matrix(1 0 0 -1 651 347.761)"/><path d="M504 474 504 629.89" stroke="#0070C0" stroke-width="8" stroke-miterlimit="8" stroke-dasharray="8 8" fill="none" fill-rule="evenodd"/><path d="M495.5 619C495.5 613.753 499.53 609.5 504.5 609.5 509.471 609.5 513.5 613.753 513.5 619 513.5 624.247 509.471 628.5 504.5 628.5 499.53 628.5 495.5 624.247 495.5 619Z" stroke="#000000" stroke-width="1.33333" stroke-miterlimit="8" fill-rule="evenodd"/></g></svg>